<svg width="361" height="330" viewBox="0 0 361 330" fill="none" xmlns="http://www.w3.org/2000/svg">
<path d="M360.633 161.406C360.633 205.021 341.798 244.536 311.37 273.139C280.943 301.742 223.9 329.638 177.493 329.638C131.093 329.638 84.5604 310.484 54.1253 281.874C23.6975 253.271 0.365074 210.849 0.365074 167.234C0.365074 123.618 20.6944 81.9245 51.1222 55.4998C81.5574 29.0823 129.591 22.3047 175.991 22.3047C222.398 22.3047 273.435 24.7115 303.863 51.129C334.298 77.5538 360.633 117.791 360.633 161.406Z" fill="#FF0007" stroke="black" stroke-width="1.17292"/>
<path d="M224.282 25.6399C224.282 29.2536 240.968 39.1379 238.046 42.2803C235.117 45.4156 212.314 38.1952 207.081 40.5663C201.848 42.9445 209.952 68.5479 203.04 69.8763C196.129 71.2047 179.237 46.7082 171.266 46.7082C163.287 46.7082 154.624 74.8113 147.712 73.4829C140.801 72.1545 139.616 51.9575 134.383 49.5792C129.15 47.2082 124.917 44.3872 121.995 41.2448C119.066 38.1095 137.349 38.0095 137.349 34.3958C137.349 30.7749 119.066 23.983 121.995 20.8406C124.917 17.7053 143.215 21.8333 148.448 19.4622C153.674 17.0911 139.741 1.7791 146.653 0.450723C153.564 -0.877654 169.919 12.549 177.897 12.549C185.869 12.549 192.147 -0.363443 199.058 0.964934C205.97 2.29331 205.565 14.5129 210.798 16.884C216.024 19.2622 229.545 12.5561 232.474 15.6914C235.397 18.8337 224.282 22.019 224.282 25.6399Z" fill="#00D400" stroke="black" stroke-width="1.17292"/>
</svg>
